<mxfile host="65bd71144e">
    <diagram name="Page-1" id="E1Tv2Iv79u1PMs5fWFh_">
        <mxGraphModel dx="829" dy="769" grid="1" gridSize="10" guides="1" tooltips="1" connect="1" arrows="1" fold="1" page="1" pageScale="1" pageWidth="827" pageHeight="1169" math="0" shadow="0">
            <root>
                <mxCell id="0"/>
                <mxCell id="1" parent="0"/>
                <mxCell id="HxEEL8P-OPklS3m3PPNj-46" value="No Data Provenance" style="rounded=1;whiteSpace=wrap;html=1;" parent="1" vertex="1">
                    <mxGeometry x="70" y="160" width="120" height="20" as="geometry"/>
                </mxCell>
                <mxCell id="HxEEL8P-OPklS3m3PPNj-1" value="Server" style="ellipse;whiteSpace=wrap;html=1;aspect=fixed;shadow=1;" parent="1" vertex="1">
                    <mxGeometry x="70" y="190" width="60" height="60" as="geometry"/>
                </mxCell>
                <mxCell id="HxEEL8P-OPklS3m3PPNj-2" value="Alice" style="ellipse;whiteSpace=wrap;html=1;aspect=fixed;shadow=1;" parent="1" vertex="1">
                    <mxGeometry x="230" y="190" width="60" height="60" as="geometry"/>
                </mxCell>
                <mxCell id="HxEEL8P-OPklS3m3PPNj-3" value="Bob" style="ellipse;whiteSpace=wrap;html=1;aspect=fixed;shadow=1;" parent="1" vertex="1">
                    <mxGeometry x="390" y="190" width="60" height="60" as="geometry"/>
                </mxCell>
                <mxCell id="HxEEL8P-OPklS3m3PPNj-5" style="edgeStyle=orthogonalEdgeStyle;rounded=0;orthogonalLoop=1;jettySize=auto;html=1;exitX=1;exitY=0.5;exitDx=0;exitDy=0;entryX=0;entryY=0.5;entryDx=0;entryDy=0;" parent="1" source="HxEEL8P-OPklS3m3PPNj-2" target="HxEEL8P-OPklS3m3PPNj-3" edge="1">
                    <mxGeometry relative="1" as="geometry"/>
                </mxCell>
                <mxCell id="HxEEL8P-OPklS3m3PPNj-4" value="" style="endArrow=classic;html=1;rounded=0;exitX=1;exitY=0.5;exitDx=0;exitDy=0;" parent="1" source="HxEEL8P-OPklS3m3PPNj-1" target="HxEEL8P-OPklS3m3PPNj-2" edge="1">
                    <mxGeometry width="50" height="50" relative="1" as="geometry">
                        <mxPoint x="410" y="360" as="sourcePoint"/>
                        <mxPoint x="460" y="310" as="targetPoint"/>
                    </mxGeometry>
                </mxCell>
                <mxCell id="HxEEL8P-OPklS3m3PPNj-6" value="TLS" style="edgeLabel;html=1;align=center;verticalAlign=middle;resizable=0;points=[];labelBackgroundColor=none;" parent="HxEEL8P-OPklS3m3PPNj-4" vertex="1" connectable="0">
                    <mxGeometry x="-0.1464" y="-1" relative="1" as="geometry">
                        <mxPoint y="-11" as="offset"/>
                    </mxGeometry>
                </mxCell>
                <mxCell id="HxEEL8P-OPklS3m3PPNj-8" value="&lt;br&gt;signed&lt;br&gt;data&lt;br&gt;⁉️" style="shape=note;whiteSpace=wrap;html=1;backgroundOutline=1;darkOpacity=0.05;size=17;" parent="1" vertex="1">
                    <mxGeometry x="310" y="230" width="60" height="70" as="geometry"/>
                </mxCell>
                <mxCell id="HxEEL8P-OPklS3m3PPNj-9" value="&lt;ul style=&quot;font-size: 11px;&quot;&gt;&lt;li&gt;Origin ⁉️&lt;/li&gt;&lt;li style=&quot;border-color: var(--border-color);&quot;&gt;Integrity ⁉️&lt;/li&gt;&lt;li&gt;&lt;span style=&quot;background-color: initial;&quot;&gt;Too much info&amp;nbsp;&lt;/span&gt;⁉️&lt;br&gt;&lt;/li&gt;&lt;/ul&gt;" style="rounded=0;whiteSpace=wrap;html=1;align=left;fillColor=none;strokeColor=none;horizontal=1;" parent="1" vertex="1">
                    <mxGeometry x="346" y="250" width="136" height="60" as="geometry"/>
                </mxCell>
                <mxCell id="wdAgGlkL8JTToDsr7vY7-1" value="🔐&lt;br&gt;signed&lt;br&gt;data&lt;br&gt;" style="shape=note;whiteSpace=wrap;html=1;backgroundOutline=1;darkOpacity=0.05;size=17;" parent="1" vertex="1">
                    <mxGeometry x="150" y="230" width="60" height="70" as="geometry"/>
                </mxCell>
            </root>
        </mxGraphModel>
    </diagram>
</mxfile>